<svg xmlns="http://www.w3.org/2000/svg" width="26.667" height="32" viewBox="0 0 26.667 32">
    <defs>
        <style>
            .cls-1{fill:#fff}.cls-2{fill:#61b565}
        </style>
    </defs>
    <g id="Group_626" data-name="Group 626" transform="translate(-1203 -72)">
        <path id="Path_1657" d="M64 32V0h18.667l8 8v24z" class="cls-1" data-name="Path 1657" transform="translate(1139 72)"/>
        <path id="Path_1658" d="M0 96v9.333h26.667V96z" class="cls-2" data-name="Path 1658" transform="translate(1203 -1.333)"/>
        <g id="Group_625" data-name="Group 625" transform="translate(1209.583 96.376)">
            <path id="Path_526" d="M33.96 117.856l.74 1.844.728-1.848h1.252l-1.328 2.824 1.424 2.888h-1.3l-.823-1.936-.817 1.936h-1.26L34 120.68l-1.312-2.824z" class="cls-1" data-name="Path 526" transform="translate(-32.576 -117.744)"/>
            <path id="Path_527" d="M97.952 117.856H99.1v4.768h2.039v.944h-3.187v-5.712z" class="cls-1" data-name="Path 527" transform="translate(-92.504 -117.744)"/>
            <path id="Path_528" d="M150.464 120.72a2 2 0 0 0 .031.363.652.652 0 0 0 .12.276.587.587 0 0 0 .237.177.958.958 0 0 0 .371.064.734.734 0 0 0 .476-.172.65.65 0 0 0 .212-.532.986.986 0 0 0-.052-.332.641.641 0 0 0-.172-.251 1.231 1.231 0 0 0-.316-.2 4.42 4.42 0 0 0-.484-.188 4.248 4.248 0 0 1-.664-.281 1.735 1.735 0 0 1-.468-.356 1.274 1.274 0 0 1-.276-.472 2 2 0 0 1-.088-.621 1.594 1.594 0 0 1 .472-1.263 1.89 1.89 0 0 1 1.3-.416 2.816 2.816 0 0 1 .708.084 1.464 1.464 0 0 1 .56.272 1.278 1.278 0 0 1 .368.479 1.712 1.712 0 0 1 .132.7v.16h-1.1a1.167 1.167 0 0 0-.143-.629.533.533 0 0 0-.48-.22.824.824 0 0 0-.32.056.55.55 0 0 0-.2.148.508.508 0 0 0-.1.212 1.018 1.018 0 0 0-.028.248.822.822 0 0 0 .112.444.986.986 0 0 0 .48.332l.888.384a2.6 2.6 0 0 1 .535.3 1.436 1.436 0 0 1 .332.336 1.109 1.109 0 0 1 .172.4 2.2 2.2 0 0 1 .048.479 1.572 1.572 0 0 1-.524 1.316 2.308 2.308 0 0 1-1.46.413 1.919 1.919 0 0 1-1.4-.424 1.655 1.655 0 0 1-.419-1.216v-.232h1.152z" class="cls-1" data-name="Path 528" transform="translate(-139.584 -116.512)"/>
        </g>
        <g id="download_2_" data-name="download (2)" transform="translate(1211 80)">
            <g id="Group_593" data-name="Group 593">
                <path id="Path_475" d="M39.765 5.365a1.322 1.322 0 0 0-1.868 0L36.059 7.2V1.26a1.26 1.26 0 0 0-2.52 0V7.2L31.7 5.365a1.321 1.321 0 0 0-1.868 1.868l4.787 4.787a.252.252 0 0 0 .356 0l4.787-4.787a1.324 1.324 0 0 0 .003-1.868z" class="cls-2" data-name="Path 475" transform="translate(-29.448)"/>
            </g>
        </g>
    </g>
</svg>
